<svg xmlns="http://www.w3.org/2000/svg"><symbol id="social-media" viewBox="0 0 1224 792"><g fill="#fff"><path d="M886.3 1c-96.9 0-175.5 78.6-175.5 175.5a175.5 175.5 0 0 0 116.4 165.3c-.1-.2-.1-.4-.2-.5a215.7 215.7 0 0 1-2.1-37.7c.8-16.7 5.9-32.6 9.5-48.8 4-17.8 8.4-35.4 12.5-53.1a7.8 7.8 0 0 0-.5-4c-5-14.2-5.8-28.5.1-42.6 2.8-6.6 6.9-12 13.1-15.8 15.7-9.5 32.9-.1 33.3 18.3.2 9.1-2.5 17.7-5 26.4-2.9 10.2-6.3 20.4-8.7 30.8-3 13 5.7 25.4 18.9 27.6s25.3-3.8 34.2-14.3 14.2-24.8 17.2-39a128.9 128.9 0 0 0 2.5-31.6c-1.2-26.2-16.3-45.5-41.7-52.1-23.8-6.2-46.7-3.5-67.2 10.9-18.2 12.7-27.9 30.7-29.9 52.7a88.7 88.7 0 0 0 .5 17.1 36.6 36.6 0 0 0 9.2 20 9.1 9.1 0 0 1 2.1 9.3c-1.1 3.5-1.9 7.2-2.9 10.9s-4 6.3-8.9 4.2c-14.1-6.3-22.5-17.6-26.7-32-9-31.5-2.2-59.8 18.5-84.8 16.6-20.2 38.7-31.3 64.3-35.6 21-3.5 41.7-2.9 61.7 4.9 29.4 11.5 49 32.1 56.8 63.2 2.7 10.7 2.5 21.6 1.4 32.5-1.6 17-5.8 33.3-14.2 48.3-11.3 20.4-27.4 34.9-50.6 40.5-8.5 2.1-17.2 3-25.9 1.3-13-2.6-20.2-7-29.2-17.8-2.8 10.8-5.7 21.3-8 31.9-4.7 21.3-15 39.7-28 56.9a14.4 14.4 0 0 1-2.2 2.7l-.6.5a177.3 177.3 0 0 0 55.8 9c96.9 0 175.5-78.6 175.5-175.5S983.2 1 886.3 1z"/><path d="M828.6 343.5a3.6 3.6 0 0 0 1.9-.5l-3.3-1.2a3 3 0 0 0 1.4 1.7z"/></g><g fill="#fff"><path d="M528.6 108.9a67.7 67.7 0 1 0 67.7 67.6 67.6 67.6 0 0 0-67.7-67.6z"/><path d="M526.5.4C429.6.4 351 79 351 175.9s78.6 175.5 175.5 175.5S702 272.8 702 175.9 623.4.4 526.5.4zm2.1 268a91.9 91.9 0 1 1 91.9-91.9 92 92 0 0 1-91.9 91.9zm90.6-175.7a10.8 10.8 0 1 1 10.9-10.8 10.8 10.8 0 0 1-10.9 10.8z"/></g><path fill="#fff" d="M175.5.4C78.6.4 0 79 0 175.9s78.6 175.5 175.5 175.5S351 272.8 351 175.9 272.4.4 175.5.4zm-49.3 264.5v-178l144.8 89z"/></symbol><symbol id="instagram" viewBox="0 0 351 351"><g id="instagram" fill="#fff"><path d="M177.6 108.5a67.7 67.7 0 1 0 67.6 67.6 67.7 67.7 0 0 0-67.6-67.6z"/><path d="M175.5 0C78.6 0 0 78.6 0 175.5S78.6 351 175.5 351 351 272.4 351 175.5 272.4 0 175.5 0zm2.1 268a91.9 91.9 0 1 1 91.9-91.9 92 92 0 0 1-91.9 91.9zm90.6-175.7A10.8 10.8 0 1 1 279 81.5a10.8 10.8 0 0 1-10.8 10.8z"/></g></symbol><symbol id="pintrest" viewBox="0 0 351 351"><path fill="#fff" d="M175.5 0C78.6 0 0 78.6 0 175.5c0 76.2 48.6 141 116.4 165.3a1.1 1.1 0 0 1-.1-.5 215.7 215.7 0 0 1-2.2-37.7c.8-16.8 5.9-32.6 9.5-48.8 4-17.8 8.4-35.4 12.5-53.2a7.6 7.6 0 0 0-.5-3.9c-5-14.3-5.8-28.5.2-42.6a32.5 32.5 0 0 1 13-15.8c15.7-9.5 32.9-.1 33.3 18.2.2 9.2-2.5 17.8-5 26.5-2.9 10.2-6.3 20.4-8.7 30.8a22.9 22.9 0 0 0 18.9 27.6c14.4 2.4 25.3-3.8 34.2-14.3s14.2-24.8 17.2-39a124.2 124.2 0 0 0 2.5-31.6c-1.2-26.2-16.2-45.5-41.7-52.1-23.8-6.2-46.7-3.5-67.2 10.8-18.2 12.8-27.9 30.8-29.9 52.8a88.7 88.7 0 0 0 .5 17.1 36.6 36.6 0 0 0 9.2 20 9.1 9.1 0 0 1 2.1 9.3c-1.1 3.5-1.9 7.2-2.9 10.9s-4 6.3-8.8 4.2c-14.2-6.3-22.6-17.6-26.7-32-9.1-31.5-2.2-59.8 18.4-84.8 16.7-20.2 38.7-31.3 64.3-35.6 21-3.5 41.7-2.9 61.7 4.9 29.4 11.5 49 32.1 56.8 63.2 2.7 10.7 2.5 21.6 1.5 32.5-1.7 17-5.9 33.3-14.2 48.3-11.4 20.4-27.5 34.9-50.7 40.5-8.5 2.1-17.2 3-25.9 1.3-13-2.6-20.2-7-29.2-17.8-2.7 10.8-5.7 21.3-8 31.9-4.7 21.3-15 39.7-28 56.8a12.4 12.4 0 0 1-2.2 2.8l-.6.4a174.5 174.5 0 0 0 55.8 9.1c96.9 0 175.5-78.6 175.5-175.5S272.4 0 175.5 0z"/><path fill="#fff" d="M117.8 342.4a2.4 2.4 0 0 0 1.9-.5l-3.3-1.1c.3.7.9 1.5 1.4 1.6z"/></symbol><symbol id="youtube" viewBox="0 0 351 351"><path id="youtube" fill="#fff" d="M175.5 0C78.6 0 0 78.6 0 175.5S78.6 351 175.5 351 351 272.4 351 175.5 272.4 0 175.5 0zm-49.3 264.5v-178l144.8 89z"/></symbol></svg>